<?xml version="1.0" standalone="no"?>
<!DOCTYPE svg PUBLIC "-//W3C//DTD SVG 20010904//EN"
 "http://www.w3.org/TR/2001/REC-SVG-20010904/DTD/svg10.dtd">
<svg version="1.0" xmlns="http://www.w3.org/2000/svg"
 width="100.000000pt" height="33.000000pt" viewBox="0 0 100.000000 33.000000"
 preserveAspectRatio="xMidYMid meet">

<g transform="translate(0.000000,33.000000) scale(0.100000,-0.100000)"
fill="#000000" stroke="none">
<path d="M868 243 c24 -10 13 -42 -15 -45 -24 -3 -29 -8 -31 -37 -4 -42 11
-60 34 -40 13 11 18 11 21 2 11 -33 18 -7 15 57 -3 58 -7 70 -20 69 -11 0 -12
-2 -4 -6z m12 -71 c0 -19 -18 -42 -32 -42 -4 0 -8 14 -8 30 0 23 4 30 20 30
13 0 20 -7 20 -18z"/>
<path d="M511 223 c0 -12 -7 -24 -13 -26 -10 -4 -10 -6 0 -6 7 -1 12 -16 12
-41 0 -32 4 -40 18 -39 10 0 12 3 5 6 -7 2 -13 20 -13 39 0 20 5 34 13 34 8 0
9 2 1 8 -7 4 -14 16 -17 27 -4 19 -5 19 -6 -2z"/>
<path d="M180 208 c0 -2 -6 -23 -14 -48 l-14 -46 39 1 c41 0 42 3 19 63 -6 17
-16 32 -21 32 -5 0 -9 -1 -9 -2z"/>
<path d="M320 182 c0 -9 9 -23 20 -30 11 -7 20 -17 20 -22 0 -14 -27 -12 -33
3 -3 7 -6 4 -6 -6 -1 -14 5 -18 26 -15 36 4 41 31 8 48 -30 16 -33 35 -5 27
11 -3 20 -1 20 4 0 5 -11 9 -25 9 -17 0 -25 -5 -25 -18z"/>
<path d="M400 191 c0 -4 12 -6 28 -4 l27 4 -27 -23 c-43 -36 -37 -58 15 -57
23 0 36 3 30 6 -8 2 -13 22 -13 44 0 37 -2 39 -30 39 -16 0 -30 -4 -30 -9z
m50 -51 c0 -13 -7 -20 -20 -20 -25 0 -26 16 -2 29 23 14 22 14 22 -9z"/>
<path d="M560 155 c0 -43 1 -45 30 -45 22 0 30 5 29 18 0 10 -3 12 -6 5 -2 -7
-13 -13 -24 -13 -15 0 -19 7 -19 36 0 33 2 36 25 32 14 -3 25 -1 25 3 0 5 -13
9 -30 9 -29 0 -30 -2 -30 -45z"/>
<path d="M640 191 c0 -4 12 -6 28 -4 l27 4 -27 -23 c-39 -33 -37 -58 5 -58 32
0 32 0 29 45 -4 42 -6 45 -33 45 -16 0 -29 -4 -29 -9z m50 -51 c0 -13 -7 -20
-20 -20 -23 0 -26 10 -8 28 18 18 28 15 28 -8z"/>
<path d="M738 193 c15 -6 16 -55 0 -71 -9 -9 -7 -12 8 -12 17 0 20 5 16 31 -5
33 16 58 30 36 5 -8 8 -7 8 5 0 12 -9 16 -37 16 -21 0 -32 -3 -25 -5z"/>
<path d="M180 90 c0 -5 5 -10 10 -10 6 0 10 5 10 10 0 6 -4 10 -10 10 -5 0
-10 -4 -10 -10z"/>
</g>
</svg>
